<?xml version="1.0" encoding="UTF-8"?>
<svg xmlns="http://www.w3.org/2000/svg" xmlns:xlink="http://www.w3.org/1999/xlink" width="16px" height="16px" viewBox="0 0 16 16" version="1.1">
<defs>
<radialGradient id="radial0" gradientUnits="userSpaceOnUse" cx="68.591" cy="68.533" fx="68.591" fy="68.533" r="63.739" gradientTransform="matrix(-0.138264,-0.000222002,-0.000260068,0.161969,17.54433,-3.087727)">
<stop offset="0" style="stop-color:rgb(100%,100%,100%);stop-opacity:1;"/>
<stop offset="1" style="stop-color:rgb(15.294118%,70.980392%,10.588235%);stop-opacity:1;"/>
</radialGradient>
</defs>
<g id="surface1">
<path style=" stroke:none;fill-rule:nonzero;fill:rgb(32.941176%,44.313725%,68.627451%);fill-opacity:1;" d="M 16 7.996094 C 16 12.074219 12.800781 15.589844 8.738281 15.964844 C 4.675781 16.339844 0.875 13.480469 0.128906 9.460938 C -0.613281 5.445312 1.894531 1.398438 5.832031 0.292969 C 9.773438 -0.8125 14.027344 1.332031 15.480469 5.15625 C 15.824219 6.0625 16 7.027344 16 7.996094 "/>
<path style=" stroke:none;fill-rule:nonzero;fill:rgb(50.196078%,50.196078%,50.196078%);fill-opacity:0.843137;" d="M 15.554688 7.949219 C 15.554688 11.757812 12.558594 15.042969 8.757812 15.390625 C 4.953125 15.738281 1.390625 13.070312 0.695312 9.316406 C 0 5.566406 2.347656 1.785156 6.035156 0.753906 C 9.722656 -0.277344 13.707031 1.726562 15.066406 5.296875 C 15.390625 6.144531 15.554688 7.046875 15.554688 7.949219 "/>
<path style=" stroke:none;fill-rule:nonzero;fill:url(#radial0);" d="M 15.078125 7.996094 C 15.078125 11.832031 11.875 15.03125 8.042969 15.03125 C 4.207031 15.03125 1.007812 11.832031 1.007812 7.996094 C 1.007812 4.164062 4.207031 0.960938 8.042969 0.960938 C 11.875 0.960938 15.078125 4.164062 15.078125 7.996094 "/>
<path style=" stroke:none;fill-rule:nonzero;fill:rgb(40.784314%,62.745098%,19.215686%);fill-opacity:0.545098;" d="M 14.632812 5.546875 C 15.105469 8.878906 12.984375 12.144531 9.707031 13.128906 C 6.230469 14.175781 2.414062 12.359375 1.074219 9.046875 C 1.644531 13.023438 5.707031 15.746094 9.691406 14.820312 C 13.804688 13.863281 16.195312 9.414062 14.632812 5.546875 "/>
<path style=" stroke:none;fill-rule:nonzero;fill:rgb(69.803922%,90.588235%,58.823529%);fill-opacity:1;" d="M 12.394531 4.519531 C 11.417969 4.71875 10.300781 3.339844 9.457031 2.992188 C 7.878906 2.335938 5.910156 2.640625 4.484375 3.53125 C 2.972656 4.476562 1.898438 6.289062 1.734375 8.066406 C 1.730469 8.074219 1.730469 8.074219 1.734375 8.070312 C 1.84375 6.992188 1.769531 5.980469 2.179688 4.9375 C 2.859375 3.210938 4.328125 1.859375 6.101562 1.316406 C 7.933594 0.753906 9.941406 1.113281 11.519531 2.183594 C 12.007812 2.511719 13.882812 4.210938 12.394531 4.519531 "/>
<path style=" stroke:none;fill-rule:nonzero;fill:rgb(100%,100%,100%);fill-opacity:1;" d="M 6.304688 4.59375 L 6.304688 10.464844 C 6.304688 11.0625 6.058594 12.171875 6.933594 12.214844 C 7.667969 12.25 8.5 11.273438 9.019531 10.863281 C 9.878906 10.1875 10.738281 9.507812 11.597656 8.832031 C 12.425781 8.179688 11.808594 7.695312 11.199219 7.210938 C 10.273438 6.480469 9.351562 5.75 8.429688 5.019531 C 8.132812 4.78125 7.835938 4.546875 7.539062 4.3125 C 7.238281 4.074219 6.304688 4.039062 6.304688 4.59375 "/>
<path style=" stroke:none;fill-rule:nonzero;fill:rgb(32.941176%,44.313725%,68.627451%);fill-opacity:1;" d="M 7.554688 4.199219 C 8.972656 5.320312 10.390625 6.445312 11.808594 7.566406 C 12.6875 8.261719 11.703125 8.875 11.164062 9.300781 C 10.203125 10.058594 9.242188 10.816406 8.28125 11.574219 C 8.046875 11.757812 7.8125 11.945312 7.578125 12.128906 C 7.144531 12.46875 6.203125 12.355469 6.203125 11.679688 L 6.203125 4.671875 C 6.203125 4.046875 7.125 3.855469 7.554688 4.199219 M 7.433594 11.988281 C 8.835938 10.882812 10.238281 9.773438 11.644531 8.667969 C 12.390625 8.078125 11.507812 7.582031 11.039062 7.210938 C 10.113281 6.476562 9.1875 5.746094 8.261719 5.011719 C 8 4.804688 7.738281 4.597656 7.476562 4.390625 C 7.226562 4.191406 6.402344 4.140625 6.402344 4.613281 L 6.402344 11.523438 C 6.402344 12.039062 6.988281 12.339844 7.433594 11.988281 "/>
</g>
</svg>
